<svg width="117" height="18" viewBox="0 0 117 18" fill="none" xmlns="http://www.w3.org/2000/svg">
<circle cx="9" cy="9" r="8.5" fill="#06B6D4"/>
<path d="M9.00001 2.20001C10.8035 2.20001 12.5331 2.91644 13.8083 4.19169C15.0836 5.46693 15.8 7.19654 15.8 9.00001C15.8 10.8035 15.0836 12.5331 13.8083 13.8083C12.5331 15.0836 10.8035 15.8 9.00002 15.8L9.00001 9.00001L9.00001 2.20001Z" fill="white"/>
<path d="M29.5376 6.61719C29.4912 6.183 29.2957 5.84493 28.951 5.60298C28.6096 5.36103 28.1655 5.24006 27.6186 5.24006C27.2341 5.24006 26.9044 5.29806 26.6293 5.41406C26.3542 5.53007 26.1437 5.6875 25.9979 5.88636C25.852 6.08523 25.7775 6.31226 25.7741 6.56747C25.7741 6.77959 25.8222 6.96354 25.9183 7.11932C26.0178 7.27509 26.152 7.40767 26.321 7.51705C26.4901 7.62311 26.6773 7.71259 26.8828 7.78551C27.0883 7.85843 27.2955 7.91974 27.5043 7.96946L28.4588 8.2081C28.8433 8.29758 29.2128 8.41856 29.5675 8.57102C29.9254 8.72348 30.2453 8.91572 30.527 9.14773C30.812 9.37973 31.0374 9.6598 31.2031 9.98793C31.3688 10.3161 31.4517 10.7005 31.4517 11.1413C31.4517 11.7379 31.2992 12.2633 30.9943 12.7173C30.6894 13.1681 30.2486 13.5211 29.6719 13.7763C29.0985 14.0282 28.4041 14.1541 27.5888 14.1541C26.7966 14.1541 26.1089 14.0315 25.5256 13.7862C24.9455 13.541 24.4915 13.183 24.1634 12.7124C23.8385 12.2417 23.6629 11.6683 23.6364 10.9922H25.451C25.4775 11.3468 25.5869 11.6418 25.7791 11.8771C25.9714 12.1125 26.2216 12.2881 26.5298 12.4041C26.8414 12.5201 27.1894 12.5781 27.5739 12.5781C27.9749 12.5781 28.3262 12.5185 28.6278 12.3991C28.9328 12.2765 29.1714 12.1075 29.3438 11.892C29.5161 11.6733 29.6039 11.4181 29.6072 11.1264C29.6039 10.8613 29.526 10.6425 29.3736 10.4702C29.2211 10.2945 29.0073 10.1487 28.7322 10.0327C28.4605 9.91335 28.1423 9.80729 27.7777 9.71449L26.6193 9.41619C25.7808 9.20076 25.1179 8.87429 24.6307 8.43679C24.1468 7.99598 23.9048 7.41098 23.9048 6.68182C23.9048 6.08191 24.0672 5.55658 24.392 5.10582C24.7202 4.65507 25.166 4.3054 25.7294 4.05682C26.2929 3.80492 26.9309 3.67898 27.6435 3.67898C28.366 3.67898 28.9991 3.80492 29.5426 4.05682C30.0895 4.3054 30.5187 4.65175 30.8303 5.09588C31.1418 5.53669 31.3026 6.0438 31.3125 6.61719H29.5376ZM35.214 14.1541C34.7301 14.1541 34.2942 14.0679 33.9064 13.8956C33.522 13.7199 33.217 13.4614 32.9917 13.12C32.7696 12.7786 32.6586 12.3577 32.6586 11.8572C32.6586 11.4264 32.7381 11.0701 32.8972 10.7884C33.0563 10.5066 33.2734 10.2812 33.5485 10.1122C33.8236 9.94318 34.1335 9.81558 34.4782 9.7294C34.8262 9.63991 35.1858 9.57528 35.557 9.53551C36.0044 9.48911 36.3674 9.44768 36.6458 9.41122C36.9242 9.37145 37.1264 9.31179 37.2523 9.23224C37.3816 9.14938 37.4462 9.02178 37.4462 8.84943V8.8196C37.4462 8.44508 37.3352 8.15507 37.1131 7.94957C36.891 7.74408 36.5712 7.64134 36.1536 7.64134C35.7128 7.64134 35.3631 7.73745 35.1046 7.92969C34.8494 8.12192 34.677 8.34896 34.5875 8.6108L32.9071 8.37216C33.0397 7.90814 33.2585 7.52036 33.5634 7.20881C33.8683 6.89394 34.2412 6.65862 34.682 6.50284C35.1228 6.34375 35.61 6.2642 36.1436 6.2642C36.5115 6.2642 36.8778 6.30729 37.2424 6.39347C37.6069 6.47964 37.94 6.62216 38.2417 6.82102C38.5433 7.01657 38.7852 7.28338 38.9675 7.62145C39.1531 7.95952 39.2459 8.3821 39.2459 8.8892V14H37.5158V12.951H37.4561C37.3468 13.1631 37.1926 13.362 36.9938 13.5476C36.7982 13.7299 36.5513 13.8774 36.253 13.9901C35.958 14.0994 35.6117 14.1541 35.214 14.1541ZM35.6813 12.8317C36.0426 12.8317 36.3558 12.7604 36.6209 12.6179C36.8861 12.4721 37.0899 12.2798 37.2324 12.0412C37.3783 11.8026 37.4512 11.5424 37.4512 11.2607V10.3608C37.3948 10.4072 37.2987 10.4503 37.1628 10.4901C37.0302 10.5298 36.8811 10.5646 36.7154 10.5945C36.5497 10.6243 36.3856 10.6508 36.2232 10.674C36.0608 10.6972 35.9199 10.7171 35.8006 10.7337C35.5321 10.7701 35.2918 10.8298 35.0797 10.9126C34.8676 10.9955 34.7002 11.1115 34.5776 11.2607C34.455 11.4065 34.3936 11.5954 34.3936 11.8274C34.3936 12.1589 34.5146 12.4091 34.7566 12.5781C34.9985 12.7472 35.3068 12.8317 35.6813 12.8317ZM44.9235 6.36364V7.75568H40.4093V6.36364H44.9235ZM41.5378 14V5.64276C41.5378 5.12902 41.6439 4.70147 41.856 4.36008C42.0714 4.0187 42.3598 3.76349 42.7211 3.59446C43.0823 3.42543 43.4834 3.34091 43.9242 3.34091C44.2357 3.34091 44.5125 3.36577 44.7544 3.41548C44.9964 3.4652 45.1754 3.50994 45.2914 3.54972L44.9334 4.94176C44.8572 4.91856 44.7611 4.89536 44.6451 4.87216C44.5291 4.84564 44.3998 4.83239 44.2573 4.83239C43.9225 4.83239 43.6855 4.91359 43.5463 5.07599C43.4105 5.23508 43.3425 5.46378 43.3425 5.76207V14H41.5378ZM46.3329 14V6.36364H48.1326V14H46.3329ZM47.2377 5.27983C46.9527 5.27983 46.7074 5.18537 46.502 4.99645C46.2965 4.80421 46.1937 4.57386 46.1937 4.3054C46.1937 4.03362 46.2965 3.80327 46.502 3.61435C46.7074 3.42211 46.9527 3.32599 47.2377 3.32599C47.5261 3.32599 47.7714 3.42211 47.9735 3.61435C48.179 3.80327 48.2818 4.03362 48.2818 4.3054C48.2818 4.57386 48.179 4.80421 47.9735 4.99645C47.7714 5.18537 47.5261 5.27983 47.2377 5.27983ZM53.364 14.1491C52.5984 14.1491 51.9371 13.9901 51.3803 13.6719C50.8268 13.3504 50.4009 12.8963 50.1026 12.3097C49.8043 11.7197 49.6552 11.0253 49.6552 10.2266C49.6552 9.44105 49.8043 8.75166 50.1026 8.15838C50.4042 7.56179 50.8252 7.09777 51.3654 6.76633C51.9057 6.43158 52.5404 6.2642 53.2695 6.2642C53.7402 6.2642 54.1843 6.34044 54.6019 6.4929C55.0228 6.64205 55.3941 6.87405 55.7156 7.18892C56.0404 7.50379 56.2956 7.90483 56.4812 8.39205C56.6668 8.87595 56.7596 9.45265 56.7596 10.1222V10.674H50.5004V9.46094H55.0344C55.0311 9.11624 54.9566 8.80966 54.8107 8.54119C54.6649 8.26941 54.4611 8.05563 54.1992 7.89986C53.9407 7.74408 53.6391 7.66619 53.2944 7.66619C52.9265 7.66619 52.6033 7.75568 52.3249 7.93466C52.0465 8.11032 51.8294 8.34233 51.6737 8.63068C51.5212 8.91572 51.4433 9.22893 51.44 9.57031V10.6293C51.44 11.0734 51.5212 11.4545 51.6836 11.7727C51.846 12.0876 52.073 12.3295 52.3647 12.4986C52.6564 12.6643 52.9978 12.7472 53.3888 12.7472C53.6507 12.7472 53.8877 12.7107 54.0998 12.6378C54.3119 12.5616 54.4959 12.4505 54.6516 12.3047C54.8074 12.1589 54.9251 11.9782 55.0046 11.7628L56.685 11.9517C56.579 12.3958 56.3768 12.7836 56.0785 13.1151C55.7835 13.4432 55.4057 13.6984 54.945 13.8807C54.4843 14.0597 53.9573 14.1491 53.364 14.1491ZM60.0819 9.52557V14H58.2821V6.36364H60.0023V7.66122H60.0918C60.2675 7.23366 60.5475 6.89394 60.932 6.64205C61.3198 6.39015 61.7987 6.2642 62.3688 6.2642C62.8958 6.2642 63.3548 6.37689 63.7459 6.60227C64.1403 6.82765 64.4453 7.15412 64.6607 7.58168C64.8794 8.00923 64.9872 8.52794 64.9838 9.13778V14H63.1841V9.41619C63.1841 8.90578 63.0516 8.50639 62.7864 8.21804C62.5246 7.92969 62.1616 7.78551 61.6976 7.78551C61.3828 7.78551 61.1027 7.85511 60.8574 7.99432C60.6155 8.13021 60.4249 8.32741 60.2857 8.58594C60.1498 8.84446 60.0819 9.15767 60.0819 9.52557ZM70.6266 6.36364V7.75568H66.2367V6.36364H70.6266ZM67.3205 4.53409H69.1202V11.7031C69.1202 11.9451 69.1567 12.1307 69.2296 12.2599C69.3058 12.3859 69.4052 12.4721 69.5279 12.5185C69.6505 12.5649 69.7864 12.5881 69.9355 12.5881C70.0482 12.5881 70.151 12.5798 70.2438 12.5632C70.3399 12.5466 70.4128 12.5317 70.4625 12.5185L70.7658 13.9254C70.6697 13.9586 70.5321 13.995 70.3532 14.0348C70.1775 14.0746 69.9621 14.0978 69.7069 14.1044C69.2561 14.1177 68.8501 14.0497 68.4888 13.9006C68.1275 13.7481 67.8408 13.5128 67.6287 13.1946C67.4199 12.8764 67.3172 12.4787 67.3205 12.0014V4.53409ZM77.8267 14L74.9531 3.81818H76.9368L78.7713 11.3004H78.8658L80.8246 3.81818H82.6293L84.593 11.3054H84.6825L86.517 3.81818H88.5007L85.6271 14H83.8075L81.7692 6.85582H81.6896L79.6463 14H77.8267ZM91.1183 14.1541C90.6344 14.1541 90.1985 14.0679 89.8107 13.8956C89.4263 13.7199 89.1213 13.4614 88.896 13.12C88.6739 12.7786 88.5629 12.3577 88.5629 11.8572C88.5629 11.4264 88.6424 11.0701 88.8015 10.7884C88.9606 10.5066 89.1777 10.2812 89.4528 10.1122C89.7279 9.94318 90.0378 9.81558 90.3825 9.7294C90.7305 9.63991 91.0901 9.57528 91.4613 9.53551C91.9087 9.48911 92.2717 9.44768 92.5501 9.41122C92.8285 9.37145 93.0307 9.31179 93.1566 9.23224C93.2859 9.14938 93.3505 9.02178 93.3505 8.84943V8.8196C93.3505 8.44508 93.2395 8.15507 93.0174 7.94957C92.7953 7.74408 92.4755 7.64134 92.0579 7.64134C91.6171 7.64134 91.2674 7.73745 91.0089 7.92969C90.7537 8.12192 90.5813 8.34896 90.4918 8.6108L88.8114 8.37216C88.944 7.90814 89.1628 7.52036 89.4677 7.20881C89.7726 6.89394 90.1455 6.65862 90.5863 6.50284C91.0271 6.34375 91.5143 6.2642 92.0479 6.2642C92.4158 6.2642 92.7821 6.30729 93.1467 6.39347C93.5112 6.47964 93.8443 6.62216 94.146 6.82102C94.4476 7.01657 94.6895 7.28338 94.8718 7.62145C95.0574 7.95952 95.1502 8.3821 95.1502 8.8892V14H93.4201V12.951H93.3604C93.2511 13.1631 93.0969 13.362 92.8981 13.5476C92.7025 13.7299 92.4556 13.8774 92.1573 13.9901C91.8623 14.0994 91.516 14.1541 91.1183 14.1541ZM91.5856 12.8317C91.9469 12.8317 92.2601 12.7604 92.5252 12.6179C92.7904 12.4721 92.9942 12.2798 93.1367 12.0412C93.2826 11.8026 93.3555 11.5424 93.3555 11.2607V10.3608C93.2991 10.4072 93.203 10.4503 93.0671 10.4901C92.9345 10.5298 92.7854 10.5646 92.6197 10.5945C92.454 10.6243 92.2899 10.6508 92.1275 10.674C91.9651 10.6972 91.8242 10.7171 91.7049 10.7337C91.4364 10.7701 91.1961 10.8298 90.984 10.9126C90.7719 10.9955 90.6045 11.1115 90.4819 11.2607C90.3593 11.4065 90.2979 11.5954 90.2979 11.8274C90.2979 12.1589 90.4189 12.4091 90.6609 12.5781C90.9028 12.7472 91.2111 12.8317 91.5856 12.8317ZM98.7596 3.81818V14H96.9599V3.81818H98.7596ZM102.41 3.81818V14H100.61V3.81818H102.41ZM107.641 14.1491C106.876 14.1491 106.214 13.9901 105.658 13.6719C105.104 13.3504 104.678 12.8963 104.38 12.3097C104.082 11.7197 103.933 11.0253 103.933 10.2266C103.933 9.44105 104.082 8.75166 104.38 8.15838C104.682 7.56179 105.103 7.09777 105.643 6.76633C106.183 6.43158 106.818 6.2642 107.547 6.2642C108.018 6.2642 108.462 6.34044 108.879 6.4929C109.3 6.64205 109.671 6.87405 109.993 7.18892C110.318 7.50379 110.573 7.90483 110.759 8.39205C110.944 8.87595 111.037 9.45265 111.037 10.1222V10.674H104.778V9.46094H109.312C109.308 9.11624 109.234 8.80966 109.088 8.54119C108.942 8.26941 108.738 8.05563 108.477 7.89986C108.218 7.74408 107.916 7.66619 107.572 7.66619C107.204 7.66619 106.881 7.75568 106.602 7.93466C106.324 8.11032 106.107 8.34233 105.951 8.63068C105.799 8.91572 105.721 9.22893 105.717 9.57031V10.6293C105.717 11.0734 105.799 11.4545 105.961 11.7727C106.123 12.0876 106.35 12.3295 106.642 12.4986C106.934 12.6643 107.275 12.7472 107.666 12.7472C107.928 12.7472 108.165 12.7107 108.377 12.6378C108.589 12.5616 108.773 12.4505 108.929 12.3047C109.085 12.1589 109.202 11.9782 109.282 11.7628L110.962 11.9517C110.856 12.3958 110.654 12.7836 110.356 13.1151C110.061 13.4432 109.683 13.6984 109.222 13.8807C108.762 14.0597 108.235 14.1491 107.641 14.1491ZM116.373 6.36364V7.75568H111.983V6.36364H116.373ZM113.067 4.53409H114.866V11.7031C114.866 11.9451 114.903 12.1307 114.976 12.2599C115.052 12.3859 115.151 12.4721 115.274 12.5185C115.397 12.5649 115.532 12.5881 115.682 12.5881C115.794 12.5881 115.897 12.5798 115.99 12.5632C116.086 12.5466 116.159 12.5317 116.209 12.5185L116.512 13.9254C116.416 13.9586 116.278 13.995 116.099 14.0348C115.924 14.0746 115.708 14.0978 115.453 14.1044C115.002 14.1177 114.596 14.0497 114.235 13.9006C113.874 13.7481 113.587 13.5128 113.375 13.1946C113.166 12.8764 113.063 12.4787 113.067 12.0014V4.53409Z" fill="#0F172A"/>
</svg>
