<svg xmlns="http://www.w3.org/2000/svg" width="80" height="80" viewBox="0 0 80 80" fill="none">
<path d="M3.2 0H0V3.2H3.2V0ZM3.2 3.2H0V6.4H3.2V3.2ZM3.2 6.4H0V9.6H3.2V6.4Z" fill="black"/>
<path d="M3.2 9.6001H0V12.8001H3.2V9.6001ZM3.2 12.8001H0V16.0001H3.2V12.8001ZM3.2 16.0001H0V19.2001H3.2V16.0001ZM3.2 19.2001H0V22.4001H3.2V19.2001ZM3.2 25.6001H0V28.8001H3.2V25.6001ZM3.2 35.2001H0V38.4001H3.2V35.2001ZM3.2 57.6001H0V60.8001H3.2V57.6001Z" fill="black"/>
<path d="M3.2 60.8H0V64H3.2V60.8ZM3.2 64H0V67.2H3.2V64ZM3.2 67.2H0V70.4001H3.2V67.2ZM3.2 70.4001H0V73.6H3.2V70.4001Z" fill="black"/>
<path d="M3.2 73.6H0V76.8H3.2V73.6ZM3.2 76.8H0V80H3.2V76.8ZM6.4 0H3.2V3.2H6.4V0ZM6.4 19.2H3.2V22.4H6.4V19.2ZM6.4 25.6H3.2V28.8H6.4V25.6ZM6.4 28.8H3.2V32H6.4V28.8ZM6.4 32H3.2V35.2H6.4V32ZM6.4 35.2H3.2V38.4H6.4V35.2Z" fill="black"/>
<path d="M6.4 38.4H3.2V41.6H6.4V38.4ZM6.4 48H3.2V51.2H6.4V48ZM6.4 51.2H3.2V54.4H6.4V51.2ZM6.4 57.6H3.2V60.8H6.4V57.6ZM6.4 76.8H3.2V80H6.4V76.8ZM9.6 0H6.4V3.2H9.6V0ZM9.6 6.4H6.4V9.6H9.6V6.4Z" fill="black"/>
<path d="M9.59999 9.6001H6.39999V12.8001H9.59999V9.6001ZM9.59999 12.8001H6.39999V16.0001H9.59999V12.8001ZM9.59999 19.2001H6.39999V22.4001H9.59999V19.2001ZM9.59999 28.8001H6.39999V32.0001H9.59999V28.8001ZM9.59999 32.0001H6.39999V35.2001H9.59999V32.0001ZM9.59999 41.6001H6.39999V44.8001H9.59999V41.6001Z" fill="black"/>
<path d="M9.59999 44.8H6.39999V48H9.59999V44.8ZM9.59999 57.6H6.39999V60.8H9.59999V57.6ZM9.59999 64H6.39999V67.2H9.59999V64ZM9.59999 67.2H6.39999V70.4H9.59999V67.2ZM9.59999 70.4H6.39999V73.6H9.59999V70.4ZM9.59999 76.8H6.39999V80H9.59999V76.8ZM12.8 0H9.59999V3.2H12.8V0ZM12.8 6.4H9.59999V9.6H12.8V6.4Z" fill="black"/>
<path d="M12.8 9.6H9.60001V12.8H12.8V9.6ZM12.8 12.8H9.60001V16H12.8V12.8ZM12.8 19.2H9.60001V22.4H12.8V19.2ZM12.8 25.6H9.60001V28.8H12.8V25.6ZM12.8 38.4H9.60001V41.6H12.8V38.4ZM12.8 48H9.60001V51.2H12.8V48ZM12.8 51.2H9.60001V54.4H12.8V51.2ZM12.8 57.6H9.60001V60.8H12.8V57.6ZM12.8 64H9.60001V67.2H12.8V64ZM12.8 67.2H9.60001V70.4H12.8V67.2ZM12.8 70.4H9.60001V73.6H12.8V70.4ZM12.8 76.8H9.60001V80H12.8V76.8ZM16 0H12.8V3.2H16V0ZM16 6.4H12.8V9.6H16V6.4Z" fill="black"/>
<path d="M16 9.6001H12.8V12.8001H16V9.6001ZM16 12.8001H12.8V16.0001H16V12.8001ZM16 19.2001H12.8V22.4001H16V19.2001ZM16 25.6001H12.8V28.8001H16V25.6001ZM16 41.6001H12.8V44.8001H16V41.6001Z" fill="black"/>
<path d="M16 44.8H12.8V48H16V44.8ZM16 57.6H12.8V60.8H16V57.6ZM16 64H12.8V67.2H16V64ZM16 67.2H12.8V70.4H16V67.2ZM16 70.4H12.8V73.6H16V70.4ZM16 76.8H12.8V80H16V76.8ZM19.2 0H16V3.2H19.2V0ZM19.2 19.2H16V22.4H19.2V19.2ZM19.2 28.8H16V32H19.2V28.8ZM19.2 44.8H16V48H19.2V44.8ZM19.2 57.6H16V60.8H19.2V57.6ZM19.2 76.8H16V80H19.2V76.8ZM22.4 0H19.2V3.2H22.4V0ZM22.4 3.2H19.2V6.4H22.4V3.2ZM22.4 6.4H19.2V9.6H22.4V6.4Z" fill="black"/>
<path d="M22.4 9.6001H19.2V12.8001H22.4V9.6001ZM22.4 12.8001H19.2V16.0001H22.4V12.8001ZM22.4 16.0001H19.2V19.2001H22.4V16.0001ZM22.4 19.2001H19.2V22.4001H22.4V19.2001ZM22.4 25.6001H19.2V28.8001H22.4V25.6001ZM22.4 32.0001H19.2V35.2001H22.4V32.0001ZM22.4 38.4001H19.2V41.6001H22.4V38.4001ZM22.4 44.8001H19.2V48.0001H22.4V44.8001ZM22.4 51.2001H19.2V54.4001H22.4V51.2001ZM22.4 57.6001H19.2V60.8001H22.4V57.6001Z" fill="black"/>
<path d="M22.4 60.8H19.2V64H22.4V60.8ZM22.4 64H19.2V67.2H22.4V64ZM22.4 67.2H19.2V70.4001H22.4V67.2ZM22.4 70.4001H19.2V73.6H22.4V70.4001Z" fill="black"/>
<path d="M22.4 73.6H19.2V76.8001H22.4V73.6ZM22.4 76.8001H19.2V80H22.4V76.8001ZM25.6 28.8H22.4V32H25.6V28.8ZM25.6 32H22.4V35.2001H25.6V32ZM25.6 35.2001H22.4V38.4001H25.6V35.2001Z" fill="black"/>
<path d="M25.6 38.4H22.4V41.6H25.6V38.4ZM25.6 44.8H22.4V48H25.6V44.8ZM25.6 48H22.4V51.2H25.6V48ZM25.6 51.2H22.4V54.4H25.6V51.2ZM28.8 0H25.6V3.2H28.8V0ZM28.8 19.2H25.6V22.4H28.8V19.2ZM28.8 22.4H25.6V25.6H28.8V22.4ZM28.8 28.8H25.6V32H28.8V28.8ZM28.8 32H25.6V35.2H28.8V32ZM28.8 35.2H25.6V38.4H28.8V35.2Z" fill="black"/>
<path d="M28.8 38.3999H25.6V41.5999H28.8V38.3999ZM28.8 44.7999H25.6V47.9999H28.8V44.7999ZM28.8 51.1999H25.6V54.3999H28.8V51.1999Z" fill="black"/>
<path d="M28.8 54.4H25.6V57.6H28.8V54.4ZM28.8 64H25.6V67.2H28.8V64ZM28.8 67.2H25.6V70.4H28.8V67.2ZM28.8 73.6H25.6V76.8H28.8V73.6ZM28.8 76.8H25.6V80H28.8V76.8ZM32 0H28.8V3.2H32V0ZM32 6.4H28.8V9.6H32V6.4ZM32 16H28.8V19.2H32V16ZM32 22.4H28.8V25.6H32V22.4ZM32 25.6H28.8V28.8H32V25.6ZM32 32H28.8V35.2H32V32ZM32 38.4H28.8V41.6H32V38.4ZM32 54.4H28.8V57.6H32V54.4ZM32 57.6H28.8V60.8H32V57.6Z" fill="black"/>
<path d="M32 60.8H28.8V64H32V60.8ZM32 76.8H28.8V80H32V76.8ZM35.2 0H32V3.2H35.2V0ZM35.2 9.6H32V12.8H35.2V9.6ZM35.2 12.8H32V16H35.2V12.8ZM35.2 19.2H32V22.4H35.2V19.2ZM35.2 28.8H32V32H35.2V28.8ZM35.2 38.4H32V41.6H35.2V38.4ZM35.2 41.6H32V44.8H35.2V41.6ZM35.2 48H32V51.2H35.2V48ZM35.2 57.6H32V60.8H35.2V57.6ZM35.2 64H32V67.2H35.2V64ZM35.2 76.8H32V80H35.2V76.8Z" fill="black"/>
<path d="M38.4 0H35.2V3.2H38.4V0ZM38.4 3.2H35.2V6.4H38.4V3.2ZM38.4 6.4H35.2V9.6H38.4V6.4Z" fill="black"/>
<path d="M38.4 9.6001H35.2V12.8001H38.4V9.6001ZM38.4 12.8001H35.2V16.0001H38.4V12.8001ZM38.4 16.0001H35.2V19.2001H38.4V16.0001ZM38.4 51.2001H35.2V54.4001H38.4V51.2001Z" fill="black"/>
<path d="M38.4 54.3999H35.2V57.5999H38.4V54.3999ZM38.4 60.7999H35.2V63.9999H38.4V60.7999ZM38.4 63.9999H35.2V67.1999H38.4V63.9999ZM38.4 70.3999H35.2V73.5999H38.4V70.3999Z" fill="black"/>
<path d="M38.4 73.6H35.2V76.8H38.4V73.6ZM38.4 76.8H35.2V80H38.4V76.8ZM41.6 3.2H38.4V6.4H41.6V3.2ZM41.6 12.8H38.4V16H41.6V12.8ZM41.6 19.2H38.4V22.4H41.6V19.2ZM41.6 22.4H38.4V25.6H41.6V22.4ZM41.6 25.6H38.4V28.8H41.6V25.6ZM41.6 32H38.4V35.2H41.6V32ZM41.6 41.6H38.4V44.8H41.6V41.6ZM41.6 48H38.4V51.2H41.6V48ZM41.6 51.2H38.4V54.4H41.6V51.2ZM41.6 57.6H38.4V60.8H41.6V57.6ZM41.6 67.2H38.4V70.4H41.6V67.2ZM41.6 73.6H38.4V76.8H41.6V73.6ZM41.6 76.8H38.4V80H41.6V76.8ZM44.8 0H41.6V3.2H44.8V0ZM44.8 6.4H41.6V9.6H44.8V6.4Z" fill="black"/>
<path d="M44.8 22.3999H41.6V25.5999H44.8V22.3999ZM44.8 31.9999H41.6V35.1999H44.8V31.9999ZM44.8 41.5999H41.6V44.7999H44.8V41.5999Z" fill="black"/>
<path d="M44.8 44.8H41.6V48H44.8V44.8ZM44.8 51.2001H41.6V54.4001H44.8V51.2001Z" fill="black"/>
<path d="M44.8 54.3999H41.6V57.5999H44.8V54.3999ZM44.8 57.5999H41.6V60.7999H44.8V57.5999Z" fill="black"/>
<path d="M44.8 60.8H41.6V64H44.8V60.8ZM44.8 64H41.6V67.2H44.8V64ZM44.8 67.2H41.6V70.4001H44.8V67.2ZM44.8 70.4001H41.6V73.6H44.8V70.4001Z" fill="black"/>
<path d="M44.8 73.6H41.6V76.8H44.8V73.6ZM44.8 76.8H41.6V80H44.8V76.8ZM48 0H44.8V3.2H48V0ZM48 16H44.8V19.2H48V16ZM48 19.2H44.8V22.4H48V19.2ZM48 25.6H44.8V28.8H48V25.6ZM48 44.8H44.8V48H48V44.8ZM48 54.4H44.8V57.6H48V54.4ZM48 57.6H44.8V60.8H48V57.6Z" fill="black"/>
<path d="M48 60.7999H44.8V63.9999H48V60.7999ZM48 67.1999H44.8V70.3999H48V67.1999ZM51.2 6.3999H48V9.5999H51.2V6.3999ZM51.2 12.7999H48V15.9999H51.2V12.7999ZM51.2 22.3999H48V25.5999H51.2V22.3999ZM51.2 25.5999H48V28.7999H51.2V25.5999ZM51.2 28.7999H48V31.9999H51.2V28.7999ZM51.2 31.9999H48V35.1999H51.2V31.9999ZM51.2 35.1999H48V38.3999H51.2V35.1999ZM51.2 41.5999H48V44.7999H51.2V41.5999Z" fill="black"/>
<path d="M51.2 44.7999H48V47.9999H51.2V44.7999ZM51.2 54.3999H48V57.5999H51.2V54.3999ZM51.2 60.7999H48V63.9999H51.2V60.7999ZM51.2 63.9999H48V67.1999H51.2V63.9999ZM54.4 6.3999H51.2V9.5999H54.4V6.3999ZM54.4 12.7999H51.2V15.9999H54.4V12.7999ZM54.4 19.1999H51.2V22.3999H54.4V19.1999ZM54.4 28.7999H51.2V31.9999H54.4V28.7999ZM54.4 31.9999H51.2V35.1999H54.4V31.9999ZM54.4 38.3999H51.2V41.5999H54.4V38.3999ZM54.4 47.9999H51.2V51.1999H54.4V47.9999Z" fill="black"/>
<path d="M54.4 51.2H51.2V54.4H54.4V51.2Z" fill="black"/>
<path d="M54.4 54.3999H51.2V57.5999H54.4V54.3999ZM54.4 57.5999H51.2V60.7999H54.4V57.5999Z" fill="black"/>
<path d="M54.4 60.8H51.2V64H54.4V60.8ZM54.4 64H51.2V67.2H54.4V64ZM54.4 67.2H51.2V70.4H54.4V67.2ZM54.4 70.4H51.2V73.6H54.4V70.4ZM54.4 76.8H51.2V80H54.4V76.8ZM57.6 32H54.4V35.2H57.6V32ZM57.6 41.6H54.4V44.8H57.6V41.6Z" fill="black"/>
<path d="M57.6 44.8H54.4V48H57.6V44.8ZM57.6 51.2H54.4V54.4H57.6V51.2ZM57.6 64H54.4V67.2H57.6V64ZM57.6 70.4H54.4V73.6H57.6V70.4ZM57.6 76.8H54.4V80H57.6V76.8ZM60.8 0H57.6V3.2H60.8V0ZM60.8 3.2H57.6V6.4H60.8V3.2ZM60.8 6.4H57.6V9.6H60.8V6.4Z" fill="black"/>
<path d="M60.8 9.6001H57.6V12.8001H60.8V9.6001ZM60.8 12.8001H57.6V16.0001H60.8V12.8001ZM60.8 16.0001H57.6V19.2001H60.8V16.0001ZM60.8 19.2001H57.6V22.4001H60.8V19.2001ZM60.8 25.6001H57.6V28.8001H60.8V25.6001ZM60.8 35.2001H57.6V38.4001H60.8V35.2001Z" fill="black"/>
<path d="M60.8 38.4H57.6V41.6H60.8V38.4ZM60.8 44.8H57.6V48H60.8V44.8ZM60.8 48H57.6V51.2H60.8V48ZM60.8 51.2H57.6V54.4H60.8V51.2ZM60.8 57.6H57.6V60.8H60.8V57.6ZM60.8 64H57.6V67.2H60.8V64ZM60.8 67.2H57.6V70.4H60.8V67.2ZM64 0H60.8V3.2H64V0ZM64 19.2H60.8V22.4H64V19.2ZM64 28.8H60.8V32H64V28.8ZM64 38.4H60.8V41.6H64V38.4ZM64 48H60.8V51.2H64V48ZM64 51.2H60.8V54.4H64V51.2ZM64 64H60.8V67.2H64V64ZM64 73.6H60.8V76.8H64V73.6ZM67.2 0H64V3.2H67.2V0ZM67.2 6.4H64V9.6H67.2V6.4Z" fill="black"/>
<path d="M67.2 9.6001H64V12.8001H67.2V9.6001ZM67.2 12.8001H64V16.0001H67.2V12.8001ZM67.2 19.2001H64V22.4001H67.2V19.2001ZM67.2 28.8001H64V32.0001H67.2V28.8001ZM67.2 41.6001H64V44.8001H67.2V41.6001Z" fill="black"/>
<path d="M67.2 44.8H64V48H67.2V44.8ZM67.2 51.2001H64V54.4001H67.2V51.2001Z" fill="black"/>
<path d="M67.2 54.3999H64V57.5999H67.2V54.3999ZM67.2 57.5999H64V60.7999H67.2V57.5999Z" fill="black"/>
<path d="M67.2 60.8H64V64H67.2V60.8ZM67.2 64H64V67.2H67.2V64ZM67.2 70.4001H64V73.6H67.2V70.4001Z" fill="black"/>
<path d="M67.2 73.6H64V76.8H67.2V73.6ZM70.4 0H67.2V3.2H70.4V0ZM70.4 6.4H67.2V9.6H70.4V6.4Z" fill="black"/>
<path d="M70.4 9.6H67.2V12.8H70.4V9.6ZM70.4 12.8H67.2V16H70.4V12.8ZM70.4 19.2H67.2V22.4H70.4V19.2ZM70.4 28.8H67.2V32H70.4V28.8ZM70.4 32H67.2V35.2H70.4V32ZM70.4 35.2H67.2V38.4H70.4V35.2ZM70.4 44.8H67.2V48H70.4V44.8ZM70.4 48H67.2V51.2H70.4V48ZM70.4 70.4H67.2V73.6H70.4V70.4ZM70.4 76.8H67.2V80H70.4V76.8ZM73.6 0H70.4V3.2H73.6V0Z" fill="black"/>
<path d="M73.6 6.3999H70.4V9.5999H73.6V6.3999Z" fill="black"/>
<path d="M73.6 9.6001H70.4V12.8001H73.6V9.6001ZM73.6 12.8001H70.4V16.0001H73.6V12.8001ZM73.6 19.2001H70.4V22.4001H73.6V19.2001ZM73.6 28.8001H70.4V32.0001H73.6V28.8001ZM73.6 35.2001H70.4V38.4001H73.6V35.2001ZM73.6 44.8001H70.4V48.0001H73.6V44.8001ZM73.6 48.0001H70.4V51.2001H73.6V48.0001ZM73.6 51.2001H70.4V54.4001H73.6V51.2001Z" fill="black"/>
<path d="M73.6 54.3999H70.4V57.5999H73.6V54.3999ZM73.6 70.3999H70.4V73.5999H73.6V70.3999Z" fill="black"/>
<path d="M73.6 73.6H70.4V76.8H73.6V73.6ZM76.8 0H73.6V3.2H76.8V0ZM76.8 19.2H73.6V22.4H76.8V19.2ZM76.8 28.8H73.6V32H76.8V28.8ZM76.8 35.2H73.6V38.4H76.8V35.2ZM76.8 41.6H73.6V44.8H76.8V41.6Z" fill="black"/>
<path d="M76.8 44.8H73.6V48H76.8V44.8ZM76.8 51.2001H73.6V54.4001H76.8V51.2001Z" fill="black"/>
<path d="M76.8 54.3999H73.6V57.5999H76.8V54.3999ZM76.8 63.9999H73.6V67.1999H76.8V63.9999ZM76.8 67.1999H73.6V70.3999H76.8V67.1999ZM76.8 70.3999H73.6V73.5999H76.8V70.3999Z" fill="black"/>
<path d="M76.8 73.6H73.6V76.8H76.8V73.6ZM80 0H76.8V3.2H80V0ZM80 3.2H76.8V6.4H80V3.2ZM80 6.4H76.8V9.6H80V6.4Z" fill="black"/>
<path d="M80 9.6001H76.8V12.8001H80V9.6001ZM80 12.8001H76.8V16.0001H80V12.8001ZM80 16.0001H76.8V19.2001H80V16.0001ZM80 19.2001H76.8V22.4001H80V19.2001ZM80 25.6001H76.8V28.8001H80V25.6001ZM80 32.0001H76.8V35.2001H80V32.0001ZM80 35.2001H76.8V38.4001H80V35.2001Z" fill="black"/>
<path d="M80 38.3999H76.8V41.5999H80V38.3999ZM80 44.7999H76.8V47.9999H80V44.7999ZM80 47.9999H76.8V51.1999H80V47.9999ZM80 57.5999H76.8V60.7999H80V57.5999ZM80 63.9999H76.8V67.1999H80V63.9999ZM80 67.1999H76.8V70.3999H80V67.1999ZM80 70.3999H76.8V73.5999H80V70.3999Z" fill="black"/>
<path d="M80 73.6001H76.8V76.8001H80V73.6001ZM80 76.8001H76.8V80.0001H80V76.8001Z" fill="black"/>
</svg>